<?xml version="1.0" encoding="UTF-8"?>
<!-- Created with Inkscape (http://www.inkscape.org/) -->
<svg width="140" height="100" version="1.1" viewBox="0 0 37.042 26.458" xmlns="http://www.w3.org/2000/svg"><g fill="#fff" stroke="#ff9800"><g transform="rotate(-11.682 -9.6602 -47.538)"><rect transform="rotate(-17.989)" x="-12.384" y="4.209" width="13.247" height="20.311" ry=".55192" stroke-linecap="round" stroke-width=".66146"/><g transform="rotate(-17.989 10.416 69.664)" fill-rule="evenodd"><path d="m11.067 9.8527 0.58486 0.53987 1.0348-1.1247" stroke-width=".39688"/><path d="m13.775 9.9732h7.7304" stroke-width=".61626"/></g><g transform="rotate(-17.989 19.091 68.291)" fill-rule="evenodd"><path d="m11.067 9.8527 0.58486 0.53987 1.0348-1.1247" stroke-width=".39688"/><path d="m13.775 9.9732h7.7304" stroke-width=".61626"/></g><g fill-rule="evenodd"><path d="m-5.7253 17.851 0.723 0.33286 0.63682-1.3893" stroke-width=".39688"/><g stroke-width=".61626"><path d="m-3.1131 17.129 7.3525-2.3874"/><path d="m-2.2809 19.691 7.3525-2.3874"/><path d="m-1.4631 22.21 7.3525-2.3874"/></g></g><rect transform="rotate(-17.989)" x="-9.4724" y="6.5704" width="7.2883" height=".49488" ry=".24744" stroke-linecap="round" stroke-width=".561"/></g><g transform="rotate(-10.785 -5.7097 16.531)"><rect x="9.8201" y="5.4561" width="13.247" height="20.311" ry=".55192" stroke-linecap="round" stroke-width=".66146"/><g transform="translate(.18103 1.0583)" fill-rule="evenodd"><path d="m11.067 9.8527 0.58486 0.53987 1.0348-1.1247" stroke-width=".39688"/><path d="m13.775 9.9732h7.7304" stroke-width=".61626"/></g><g transform="translate(.18103 3.8047)" fill-rule="evenodd"><path d="m11.067 9.8527 0.58486 0.53987 1.0348-1.1247" stroke-width=".39688"/><path d="m13.775 9.9732h7.7304" stroke-width=".61626"/></g><g fill-rule="evenodd"><path d="m11.246 16.457 0.58486 0.53987 1.0348-1.1247" stroke-width=".39688"/><g stroke-width=".61626"><path d="m13.954 16.577h7.7304"/><path d="m13.954 19.271h7.7304"/><path d="m13.954 21.919h7.7304"/></g></g><rect x="12.732" y="7.8175" width="7.2883" height=".49488" ry=".24744" stroke-linecap="round" stroke-width=".561"/></g><g transform="rotate(28.155 17.012 58.069)"><rect transform="rotate(-17.989)" x="-12.384" y="4.209" width="13.247" height="20.311" ry=".55192" stroke-linecap="round" stroke-width=".66146"/><g transform="rotate(-17.989 10.416 69.664)" fill-rule="evenodd"><path d="m11.067 9.8527 0.58486 0.53987 1.0348-1.1247" stroke-width=".39688"/><path d="m13.775 9.9732h7.7304" stroke-width=".61626"/></g><g transform="rotate(-17.989 19.091 68.291)" fill-rule="evenodd"><path d="m11.067 9.8527 0.58486 0.53987 1.0348-1.1247" stroke-width=".39688"/><path d="m13.775 9.9732h7.7304" stroke-width=".61626"/></g><g fill-rule="evenodd"><path d="m-5.7253 17.851 0.723 0.33286 0.63682-1.3893" stroke-width=".39688"/><g stroke-width=".61626"><path d="m-3.1131 17.129 7.3525-2.3874"/><path d="m-2.2809 19.691 7.3525-2.3874"/><path d="m-1.4631 22.21 7.3525-2.3874"/></g></g><rect transform="rotate(-17.989)" x="-9.4724" y="6.5704" width="7.2883" height=".49488" ry=".24744" stroke-linecap="round" stroke-width=".561"/></g><g transform="rotate(45.85 13.748 46.444)"><rect transform="rotate(-17.989)" x="-12.384" y="4.209" width="13.247" height="20.311" ry=".55192" stroke-linecap="round" stroke-width=".66146"/><g transform="rotate(-17.989 10.416 69.664)" fill-rule="evenodd"><path d="m11.067 9.8527 0.58486 0.53987 1.0348-1.1247" stroke-width=".39688"/><path d="m13.775 9.9732h7.7304" stroke-width=".61626"/></g><g transform="rotate(-17.989 19.091 68.291)" fill-rule="evenodd"><path d="m11.067 9.8527 0.58486 0.53987 1.0348-1.1247" stroke-width=".39688"/><path d="m13.775 9.9732h7.7304" stroke-width=".61626"/></g><g fill-rule="evenodd"><path d="m-5.7253 17.851 0.723 0.33286 0.63682-1.3893" stroke-width=".39688"/><g stroke-width=".61626"><path d="m-3.1131 17.129 7.3525-2.3874"/><path d="m-2.2809 19.691 7.3525-2.3874"/><path d="m-1.4631 22.21 7.3525-2.3874"/></g></g><rect transform="rotate(-17.989)" x="-9.4724" y="6.5704" width="7.2883" height=".49488" ry=".24744" stroke-linecap="round" stroke-width=".561"/></g></g></svg>
