<?xml version="1.0" encoding="UTF-8"?>
<!-- Created with Inkscape (http://www.inkscape.org/) -->
<svg width="120" height="150" version="1.1" viewBox="0 0 31.75 39.687" xmlns="http://www.w3.org/2000/svg"><rect x="3.1301" y="1.3768" width="25.2" height="37.065" ry=".40492" fill="#fff" stroke="#ff9800" stroke-linecap="round" stroke-width="1.1316"/><path d="m15.923 13.293a6.35 6.3499 0 0 0-2.6638 0.43811 6.35 6.3499 0 0 0-3.5649 8.2418l5.266e-4 0.0015a6.35 6.3499 0 0 0 8.2424 3.5637 6.35 6.3499 0 0 0 3.5643-8.2423 6.35 6.3499 0 0 0-5.5786-4.0028zm3.3012 3.2626 1.1937 1.0492-5.3492 5.4537-3.7817-3.4002 1.1216-1.1189 2.5885 2.3261z" fill="#ff9800"/><g fill="none" stroke="#ff9800" stroke-linecap="round"><g stroke-width=".66146"><path d="m15.598 11.929v-3.6049"/><path d="m22.927 17.255 3.4285-1.114"/><path d="m20.127 25.871 2.1189 2.9164"/><path d="m11.067 25.87-2.1189 2.9164"/><path d="m8.2681 17.253-3.4285-1.114"/></g><path d="m15.598 27.316v2.35" stroke-width=".51539"/><g stroke-width=".4312"><path d="m22.902 22.008 2.235 0.7262"/><path d="m20.111 13.421 1.3813-1.9012"/><path d="m11.082 13.422-1.3813-1.9012"/><path d="m8.2928 22.01-2.235 0.7262"/></g></g></svg>
