<?xml version="1.0" encoding="UTF-8"?>
<!-- Created with Inkscape (http://www.inkscape.org/) -->
<svg width="120" height="140" version="1.1" viewBox="0 0 31.75 37.042" xmlns="http://www.w3.org/2000/svg"><path x="2.4202044" y="0.37083167" width="26.717428" height="36.37402" d="m5.8118 0.37083h23.326v36.374h-22.945a3.7724 3.7724 45 0 1-3.7724-3.7724v-29.21a3.3916 3.3916 135 0 1 3.3916-3.3916z" fill="#fff"/><g fill="none" stroke="#ff9800" stroke-linecap="round" stroke-width=".7"><path transform="translate(.40814)" x="5.6100416" y="0.4191108" width="22.987875" height="29.069946" rx="0" ry="0" d="m5.61 0.41911h22.922a0.065383 0.065383 45 0 1 0.06538 0.065383v29.005h-22.988z"/><path transform="scale(-1)" d="m-2.4526-4.1341a3.5767 3.5767 0 0 1-1.0033 2.6229 3.5767 3.5767 0 0 1-2.5882 1.0899"/><path transform="scale(-1)" d="m-6.0984-36.635a3.5767 3.5767 0 0 1 3.1193 1.7768 3.5767 3.5767 0 0 1 0.00556 3.5899 3.5767 3.5767 0 0 1-3.1138 1.7865"/></g><path d="m2.4505 4.2072 0.04499 29.108" fill="#f60" fill-rule="evenodd" stroke="#ff9800" stroke-linecap="round" stroke-width=".7"/><g fill="none" stroke="#ff9800" stroke-linecap="round"><path d="m6.18 36.634h22.825v-7.3935" stroke-width=".70084"/><path d="m28.856 32.084h-20.553" stroke-width=".60361"/><path d="m28.878 34.269h-20.623" stroke-width=".60361"/></g><g stroke="#ff9800"><path transform="translate(-.61757 2.6058)" d="m11.134 12.343h13.043a0.35406 0.35406 49.432 0 1 0.34983 0.40862l-0.95416 6.1178a0.48306 0.48306 139.43 0 1-0.47729 0.40862h-10.912a0.48088 0.48088 40.696 0 1-0.47546-0.4089l-0.92601-6.1173a0.35567 0.35567 130.7 0 1 0.35166-0.4089z" fill="#ff9800" fill-rule="evenodd" stroke-width=".26458px"/><g><g><path transform="translate(.18183 1.6361)" d="m23.382 13.536h2.3424c0.11186 0 0.20047 0.0909 0.18646 0.20186-0.0752 0.5958-0.50218 2.3484-2.9266 3.043" fill="none" stroke-linecap="round" stroke-width=".7"/><path transform="matrix(-1 0 0 1 33.839 1.6272)" d="m23.382 13.536h2.3424c0.11186 0 0.20047 0.0909 0.18646 0.20186-0.0752 0.5958-0.50218 2.3484-2.9266 3.043" fill="none" stroke-linecap="round" stroke-width=".7"/><path transform="matrix(1.0493 0 0 .99748 -.33225 .27957)" d="m10.318 13.947h12.588c0.29444 0 0.34368-0.14561 0.09868-0.30881-1.5704-1.0462-7.158-4.1665-12.798-0.01542-0.23669 0.17421-0.18325 0.32424 0.11119 0.32424z" fill="#ff9800" fill-rule="evenodd" stroke-width=".265"/></g><path transform="rotate(-89.153)" d="m-11.577 15.496a1.4436 1.4436 0 0 1 1.2591 0.71717 1.4436 1.4436 0 0 1 0.0022 1.449 1.4436 1.4436 0 0 1-1.2568 0.72107" fill="none" stroke-linecap="round" stroke-width=".7"/></g></g></svg>
